<svg version="1.1" xmlns="http://www.w3.org/2000/svg" xmlns:xlink="http://www.w3.org/1999/xlink" width="440.5" height="674" viewBox="0,0,440.5,674"><defs><radialGradient cx="240" cy="0" r="218.5" gradientUnits="userSpaceOnUse" id="color-1"><stop offset="0" stop-color="#ff2600" stop-opacity="0.01961"/><stop offset="1" stop-color="#ff2600" stop-opacity="0"/></radialGradient><radialGradient cx="236.5" cy="237" r="218.5" gradientUnits="userSpaceOnUse" id="color-2"><stop offset="0" stop-color="#ff2600" stop-opacity="0.19608"/><stop offset="1" stop-color="#ff2600" stop-opacity="0"/></radialGradient></defs><g transform="translate(-18,218.5)"><g data-paper-data="{&quot;isPaintingLayer&quot;:true}" fill-rule="nonzero" stroke-opacity="0.25098" stroke="#ff2600" stroke-width="0" stroke-linecap="butt" stroke-linejoin="miter" stroke-miterlimit="10" stroke-dasharray="" stroke-dashoffset="0" style="mix-blend-mode: normal"><path d="M21.5,0c0,-120.67422 97.82578,-218.5 218.5,-218.5c120.67422,0 218.5,97.82578 218.5,218.5c0,120.67422 -97.82578,218.5 -218.5,218.5c-120.67422,0 -218.5,-97.82578 -218.5,-218.5z" fill="url(#color-1)"/><path d="M18,237c0,-120.67422 97.82578,-218.5 218.5,-218.5c120.67422,0 218.5,97.82578 218.5,218.5c0,120.67422 -97.82578,218.5 -218.5,218.5c-120.67422,0 -218.5,-97.82578 -218.5,-218.5z" fill="url(#color-2)"/></g></g></svg>