<svg version="1.1" xmlns="http://www.w3.org/2000/svg" xmlns:xlink="http://www.w3.org/1999/xlink" width="81.5" height="7.51346" viewBox="0,0,81.5,7.51346"><defs><linearGradient x1="240" y1="180" x2="199.25" y2="180" gradientUnits="userSpaceOnUse" id="color-1"><stop offset="0" stop-color="#41e2ff" stop-opacity="0"/><stop offset="1" stop-color="#41e2ff"/></linearGradient><linearGradient x1="239.75" y1="180.17112" x2="280.5" y2="180.17112" gradientUnits="userSpaceOnUse" id="color-2"><stop offset="0" stop-color="#41e2ff" stop-opacity="0"/><stop offset="1" stop-color="#41e2ff"/></linearGradient></defs><g transform="translate(-199.25,-176.32883)"><g data-paper-data="{&quot;isPaintingLayer&quot;:true}" fill-rule="nonzero" stroke-linecap="butt" stroke-linejoin="miter" stroke-miterlimit="10" stroke-dasharray="" stroke-dashoffset="0" style="mix-blend-mode: normal"><path d="M199.25,183.67117v-7.34234h81.5v7.34234z" data-paper-data="{&quot;index&quot;:null}" fill="#aff3ff" stroke="#000000" stroke-width="0"/><path d="M202.0833,183.17321c-1,0 -1,-0.37302 -1,-0.37302l0.0303,-0.27763c0.31812,-0.46568 1.21994,-2.08214 3.6621,-1.59394c0.23801,0.04758 0.40721,0.1692 0.49706,0.30839c0.33979,-0.1508 0.66603,-0.27199 0.67593,-0.27642c0.43979,-0.24667 1.52985,-0.90383 2.16381,-0.95452c1.36099,-0.10883 4.25663,1.28655 5.74724,1.4404c1.6544,0.17076 4.11825,-0.20273 5.58907,0.21653c0.47827,0.13633 0.40733,0.54902 1.00871,0.55872c1.93679,0.03124 4.01228,-0.40159 5.53075,-0.7699c0.05154,-0.0125 0.10435,-0.02685 0.15818,-0.04263l-0.19747,-0.06138c-0.22327,-0.06841 -0.36568,-0.1722 -0.36568,-0.28839c0,-0.18998 0.38075,-0.3468 0.87313,-0.37005l0.71849,-0.03829c0.12864,-0.14637 0.02295,-0.38115 0.38433,-0.37525c2.259,0.03687 2.56648,0.58665 1.84403,1.1065c1.50603,0.36973 3.00957,0.68925 4.6717,0.99926c1.93083,0.37101 4.84407,0.5054 7.65999,0.38632c-0.40597,-0.13242 -0.80841,-0.26668 -1.20805,-0.40208l-0.00002,0.00001l-1.73796,-0.35362c-0.32026,-0.06217 -0.53898,-0.18711 -0.53898,-0.3311c0,-0.20601 0.44772,-0.37302 1,-0.37302v0h0.84644c0.45747,-0.20894 1.27226,-0.59596 1.85416,-0.61841c1.15554,-0.04458 2.79392,0.48664 4.18798,0.64234c1.09572,-0.40207 2.78949,-0.80408 3.8935,-0.38012c0.04923,0.0189 0.09609,0.03769 0.14064,0.05636c0.67685,-0.10373 1.34455,-0.17706 2.05731,-0.12986c0.17013,0.01126 3.65201,0.71366 4.1107,0.49071c0.51103,-0.24839 -0.11486,-0.81836 0.69325,-0.90302c1.26429,-0.13245 4.25956,0.94688 5.20644,1.20079c1.32461,0.21338 1.85179,0.04805 3.16976,0.14339c0.62456,0.04517 1.42521,0.41304 1.81126,0.22442c1.00081,-0.489 0.37246,-2.23159 3.64669,-1.82908c0.95067,0.11686 6.65081,2.60333 6.38187,0.79162c0,0 0,-0.37302 1,-0.37302c1,0 1,0.37302 1,0.37302c-0.06191,0.71252 -1.57842,1.726 -4.05428,1.42071c-1.32378,-0.16323 -2.7989,-0.71311 -3.79841,-1.08713c-0.38508,-0.14409 -0.97369,-0.58711 -1.222,-0.40595c-0.52319,0.38169 -0.72304,1.39193 -1.56341,1.64609c-1.46442,0.4429 -5.72371,0.00512 -7.35231,-0.25389c-0.32227,-0.08539 -2.33718,-0.48918 -3.1583,-0.83607c-0.00827,0.15792 -0.08734,0.32191 -0.27535,0.38778c-1.2458,0.43647 -2.96128,0.20879 -4.24881,0.03886c-1.16095,-0.15323 -2.01308,-0.12764 -2.83878,-0.05162c-0.55515,0.48865 -2.55412,0.83869 -3.69448,1.04304c-0.30594,0.05483 -0.62122,0.10647 -0.94444,0.15478c-0.2965,0.30784 -0.69909,0.57308 -1.38966,0.61375c-0.51549,0.03036 -0.89814,-0.13642 -1.27392,-0.30669c-3.43527,0.28943 -7.27391,0.2305 -10.25523,-0.31203c-1.8114,-0.33785 -3.4522,-0.68989 -5.0965,-1.09853c-2.05007,0.60139 -5.98859,1.15874 -8.00656,1.00382c-0.93666,-0.07191 -1.43462,-0.47733 -2.02637,-0.75755c-0.51817,-0.24538 -1.67297,0.05864 -2.50939,0.04371c-2.21999,-0.03963 -2.32241,-0.01579 -4.25973,-0.44867c-0.61816,-0.13812 -1.19622,-0.3014 -1.75011,-0.47333c-0.40437,-0.12552 -0.80172,-0.2589 -1.11591,-0.41629c-0.08399,-0.04208 0.0388,-0.20307 -0.02855,-0.15702c-0.31315,0.21411 -0.47292,0.45911 -0.83619,0.66191c-0.62499,0.27976 -2.14488,1.32304 -3.50282,1.11837c-0.01776,-0.00268 -0.31494,-0.16075 -0.54251,-0.34921c-0.19916,0.24423 -0.41997,0.47928 -0.45291,0.52871l0.0303,0.09539c0,0 0,0.37302 -1,0.37302zM244.96295,181.90948c-1.07629,-0.20274 -2.22132,-0.481 -2.74689,-0.48037c-0.38474,0.00046 -0.61329,0.12244 -0.82528,0.26266l0.09386,0.0191l-0.13535,0.09257c1.16332,0.09659 2.28792,0.38653 2.82285,0.79265c0.05742,-0.00582 0.11465,-0.01176 0.17168,-0.01782c0.09555,-0.22182 0.33257,-0.46236 0.61913,-0.66878zM246.93549,182.12509c-0.03781,0.02417 -0.07394,0.05115 -0.10883,0.08051c0.12412,-0.02547 0.24575,-0.05176 0.36471,-0.07888c-0.08368,0 -0.16895,-0.00052 -0.25589,-0.00163z" data-paper-data="{&quot;index&quot;:null}" fill="#41e2ff" stroke="none" stroke-width="0.5"/><path d="M278.24996,176.99792c1,0 1,0.37303 1,0.37303l-0.0303,0.27763c-0.31812,0.46569 -1.21994,2.08215 -3.6621,1.59395c-0.23801,-0.04758 -0.40721,-0.16921 -0.49706,-0.30839c-0.33979,0.1508 -0.66603,0.27199 -0.67593,0.27642c-0.43979,0.24667 -1.52985,0.90383 -2.16381,0.95452c-1.36099,0.10883 -4.25663,-1.28655 -5.74724,-1.4404c-1.6544,-0.17076 -4.11825,0.20273 -5.58907,-0.21653c-0.47827,-0.13633 -0.40733,-0.54902 -1.00871,-0.55872c-1.93679,-0.03125 -4.01228,0.40159 -5.53075,0.7699c-0.05154,0.0125 -0.10435,0.02685 -0.15818,0.04263l0.19747,0.06139c0.22327,0.06841 0.36568,0.17218 0.36568,0.28838c0,0.18999 -0.38075,0.3468 -0.87313,0.37006l-0.71849,0.03829c-0.12864,0.14637 -0.02295,0.38115 -0.38433,0.37525c-2.259,-0.03687 -2.56648,-0.58665 -1.84403,-1.1065c-1.50603,-0.36972 -3.00957,-0.68925 -4.6717,-0.99926c-1.93083,-0.37101 -4.84407,-0.50539 -7.65999,-0.38631c0.40597,0.13241 0.80841,0.26668 1.20805,0.40207l0.00002,-0.00001l1.73796,0.35362c0.32026,0.06218 0.53898,0.18712 0.53898,0.33111c0,0.20602 -0.44772,0.37303 -1,0.37303v0h-0.84644c-0.45747,0.20894 -1.27226,0.59595 -1.85416,0.6184c-1.15554,0.04459 -2.79392,-0.48664 -4.18798,-0.64234c-1.09572,0.40207 -2.78949,0.8041 -3.8935,0.38013c-0.04923,-0.0189 -0.09609,-0.0377 -0.14064,-0.05636c-0.67685,0.10372 -1.34455,0.17706 -2.05731,0.12986c-0.17013,-0.01126 -3.65201,-0.71367 -4.1107,-0.49071c-0.51103,0.24839 0.11486,0.81836 -0.69325,0.90302c-1.26429,0.13246 -4.25956,-0.94687 -5.20644,-1.20078c-1.32461,-0.21338 -1.85179,-0.04805 -3.16976,-0.14339c-0.62456,-0.04517 -1.42521,-0.41305 -1.81126,-0.22442c-1.00081,0.48899 -0.37246,2.23159 -3.64669,1.82908c-0.95067,-0.11686 -6.65081,-2.60333 -6.38187,-0.79162c0,0 0,0.37302 -1,0.37302c-1,0 -1,-0.37302 -1,-0.37302c0.06191,-0.71252 1.57842,-1.72599 4.05428,-1.42071c1.32378,0.16323 2.7989,0.71311 3.79841,1.08713c0.38508,0.14411 0.97369,0.58712 1.222,0.40596c0.52319,-0.3817 0.72304,-1.39194 1.56341,-1.64609c1.46442,-0.4429 5.72371,-0.00512 7.35231,0.25389c0.32227,0.08537 2.33718,0.48917 3.1583,0.83606c0.00827,-0.15792 0.08734,-0.32192 0.27535,-0.38779c1.2458,-0.43648 2.96128,-0.2088 4.24881,-0.03886c1.16095,0.15323 2.01308,0.12764 2.83878,0.05162c0.55515,-0.48865 2.55412,-0.83869 3.69448,-1.04304c0.30594,-0.05482 0.62122,-0.10647 0.94444,-0.15477c0.2965,-0.30784 0.69909,-0.57309 1.38966,-0.61376c0.51549,-0.03036 0.89814,0.13642 1.27392,0.30669c3.43527,-0.28943 7.27391,-0.2305 10.25523,0.31203c1.8114,0.33785 3.4522,0.68988 5.0965,1.09852c2.05007,-0.60139 5.98859,-1.15874 8.00656,-1.00382c0.93666,0.07191 1.43462,0.47733 2.02637,0.75755c0.51817,0.24537 1.67297,-0.05865 2.50939,-0.04372c2.21999,0.03962 2.32241,0.0158 4.25973,0.44867c0.61816,0.13813 1.19622,0.30141 1.75011,0.47333c0.40437,0.12552 0.80172,0.2589 1.11591,0.41629c0.08399,0.04208 -0.0388,0.20308 0.02855,0.15703c0.31315,-0.21411 0.47292,-0.45911 0.83619,-0.66191c0.62499,-0.27976 2.14488,-1.32304 3.50282,-1.11837c0.01776,0.00268 0.31494,0.16074 0.54251,0.3492c0.19916,-0.24423 0.41997,-0.47927 0.45291,-0.5287l-0.0303,-0.09539c0,0 0,-0.37302 1,-0.37302zM238.1172,178.74205c0.38474,-0.00046 0.61329,-0.12244 0.82528,-0.26266l-0.09386,-0.01909l0.13535,-0.09257c-1.16332,-0.09658 -2.28792,-0.38653 -2.82285,-0.79265c-0.05742,0.00582 -0.11465,0.01176 -0.17168,0.01782c-0.09555,0.22182 -0.33257,0.46237 -0.61913,0.66878c1.07629,0.20273 2.22132,0.481 2.74689,0.48037zM233.39777,178.04608c0.03781,-0.02417 0.07394,-0.05115 0.10883,-0.08051c-0.12412,0.02547 -0.24575,0.05176 -0.36471,0.07888c0.08368,0 0.16895,0.00052 0.25589,0.00163z" data-paper-data="{&quot;index&quot;:null}" fill="#41e2ff" stroke="none" stroke-width="0.5"/><path d="M199.25,183.67117v-7.34234h40.75v7.34234z" data-paper-data="{&quot;index&quot;:null}" fill="url(#color-1)" stroke="#000000" stroke-width="0"/><path d="M239.75,183.84229v-7.34234h40.75v7.34234z" data-paper-data="{&quot;index&quot;:null}" fill="url(#color-2)" stroke="#000000" stroke-width="0"/></g></g></svg>