<svg version="1.1" xmlns="http://www.w3.org/2000/svg" xmlns:xlink="http://www.w3.org/1999/xlink" width="28.69109" height="19.72983" viewBox="0,0,28.69109,19.72983"><g transform="translate(-225.65445,-170.13509)"><g data-paper-data="{&quot;isPaintingLayer&quot;:true}" fill-rule="nonzero" stroke-width="0" stroke-linecap="butt" stroke-linejoin="miter" stroke-miterlimit="10" stroke-dasharray="" stroke-dashoffset="0" style="mix-blend-mode: normal"><g fill="#ffffff" stroke-opacity="0.48235" stroke="#a2ccff"><path d="M225.65446,179.34606c0,-2.20894 0,-5.76676 0,-5.76676l3.13901,-3.44421c0,0 25.55206,5.51474 25.55206,8.55699c0,3.4763 -28.69108,3.63731 -28.69108,0.65396z"/><path d="M225.65446,179.34606c0,-3.17219 25.55206,-9.21095 25.55206,-9.21095l3.13901,3.44421c0,0 0,3.16542 0,5.23169c0,3.00349 -28.69108,3.92501 -28.69108,0.53505z" data-paper-data="{&quot;index&quot;:null}"/><path d="M225.65446,180.65397c0,-2.98334 28.69108,-2.82233 28.69108,0.65396c0,3.04225 -25.55206,8.55699 -25.55206,8.55699l-3.13901,-3.44421c0,0 0,-3.55782 0,-5.76676z" data-paper-data="{&quot;index&quot;:null}"/><path d="M225.65446,180.65396c0,-3.38995 28.69108,-2.46844 28.69108,0.53505c0,2.06628 0,5.23169 0,5.23169l-3.13901,3.44421c0,0 -25.55206,-6.03876 -25.55206,-9.21095z" data-paper-data="{&quot;index&quot;:null}"/><path d="M228.85293,189.86492v-19.72983h22.29414v19.72983z"/><path d="M225.65445,184.17907v-8.35814h28.69108v8.35814z"/></g><g fill="#34202b" stroke-opacity="0.48235" stroke="#a2ccff"><path d="M226.26671,179.37396c0,-2.11467 0,-5.52064 0,-5.52064l3.00504,-3.29721c0,0 24.46154,5.27938 24.46154,8.19179c0,3.32793 -27.46659,3.48207 -27.46659,0.62605z"/><path d="M226.26671,179.37396c0,-3.03681 24.46154,-8.81785 24.46154,-8.81785l3.00504,3.29721c0,0 0,3.03032 0,5.00841c0,2.87531 -27.46659,3.75749 -27.46659,0.51222z" data-paper-data="{&quot;index&quot;:null}"/><path d="M226.26671,180.62605c0,-2.85602 27.46659,-2.70188 27.46659,0.62605c0,2.91241 -24.46154,8.19179 -24.46154,8.19179l-3.00504,-3.29721c0,0 0,-3.40598 0,-5.52064z" data-paper-data="{&quot;index&quot;:null}"/><path d="M226.26671,180.62604c0,-3.24528 27.46659,-2.36309 27.46659,0.51222c0,1.97809 0,5.00841 0,5.00841l-3.00504,3.29721c0,0 -24.46154,-5.78104 -24.46154,-8.81785z" data-paper-data="{&quot;index&quot;:null}"/><path d="M229.32867,189.4439v-18.88779h21.34267v18.88779z"/><path d="M226.2667,184.00071v-8.00143h27.46659v8.00143z"/></g><path d="M227.3,179.42108c0,-1.95556 0,-5.10527 0,-5.10527l2.77894,-3.04913c0,0 22.62105,4.88216 22.62105,7.57544c0,3.07754 -25.4,3.22008 -25.4,0.57895z" fill="#ffffff" stroke-opacity="0.48235" stroke="#a2ccff"/><path d="M227.3,179.42108c0,-2.80832 22.62105,-8.15439 22.62105,-8.15439l2.77894,3.04913c0,0 0,2.80232 0,4.63158c0,2.65897 -25.4,3.47478 -25.4,0.47368z" data-paper-data="{&quot;index&quot;:null}" fill="#ffffff" stroke-opacity="0.48235" stroke="#a2ccff"/><path d="M227.3,180.57896c0,-2.64113 25.4,-2.49859 25.4,0.57895c0,2.69328 -22.62105,7.57544 -22.62105,7.57544l-2.77894,-3.04913c0,0 0,-3.14971 0,-5.10527z" data-paper-data="{&quot;index&quot;:null}" fill="#ffffff" stroke-opacity="0.48235" stroke="#a2ccff"/><path d="M227.3,180.57895c0,-3.0011 25.4,-2.18529 25.4,0.47368c0,1.82926 0,4.63158 0,4.63158l-2.77894,3.04913c0,0 -22.62105,-5.34607 -22.62105,-8.15439z" data-paper-data="{&quot;index&quot;:null}" fill="#ffffff" stroke-opacity="0.48235" stroke="#a2ccff"/><path d="M230.13158,188.73335v-17.46667h19.73684v17.46667z" fill="#ffffff" stroke-opacity="0.48235" stroke="#a2ccff"/><path d="M227.29999,183.69971v-7.3994h25.4v7.3994z" fill="#ffffff" stroke-opacity="0.48235" stroke="#a2ccff"/></g></g></svg>