<svg version="1.1" xmlns="http://www.w3.org/2000/svg" xmlns:xlink="http://www.w3.org/1999/xlink" width="81.5" height="7.51346" viewBox="0,0,81.5,7.51346"><defs><linearGradient x1="240" y1="180" x2="199.25" y2="180" gradientUnits="userSpaceOnUse" id="color-1"><stop offset="0" stop-color="#41e2ff" stop-opacity="0"/><stop offset="1" stop-color="#41e2ff"/></linearGradient><linearGradient x1="239.75" y1="180.17112" x2="280.5" y2="180.17112" gradientUnits="userSpaceOnUse" id="color-2"><stop offset="0" stop-color="#41e2ff" stop-opacity="0"/><stop offset="1" stop-color="#41e2ff"/></linearGradient></defs><g transform="translate(-199.25,-176.32883)"><g data-paper-data="{&quot;isPaintingLayer&quot;:true}" fill-rule="nonzero" stroke-linecap="butt" stroke-linejoin="miter" stroke-miterlimit="10" stroke-dasharray="" stroke-dashoffset="0" style="mix-blend-mode: normal"><path d="M199.25,183.67117v-7.34234h81.5v7.34234z" fill="#aff3ff" stroke="#000000" stroke-width="0"/><path d="M277.91667,183.1732c-1,0 -1,-0.37302 -1,-0.37302l0.0303,-0.09539c-0.03294,-0.04943 -0.25375,-0.28448 -0.45291,-0.52871c-0.22757,0.18846 -0.52475,0.34653 -0.54251,0.34921c-1.35794,0.20467 -2.87783,-0.83861 -3.50282,-1.11837c-0.36327,-0.2028 -0.52304,-0.4478 -0.83619,-0.66191c-0.06735,-0.04605 0.05544,0.11494 -0.02855,0.15702c-0.31419,0.15739 -0.71154,0.29077 -1.11591,0.41629c-0.55389,0.17193 -1.13195,0.33521 -1.75011,0.47333c-1.93732,0.43288 -2.03974,0.40904 -4.25973,0.44867c-0.83642,0.01493 -1.99122,-0.28909 -2.50939,-0.04371c-0.59175,0.28022 -1.08971,0.68564 -2.02637,0.75755c-2.01797,0.15492 -5.95649,-0.40243 -8.00656,-1.00382c-1.6443,0.40864 -3.2851,0.76068 -5.0965,1.09853c-2.98132,0.54253 -6.81996,0.60146 -10.25523,0.31203c-0.37578,0.17027 -0.75843,0.33705 -1.27392,0.30669c-0.69057,-0.04067 -1.09316,-0.30591 -1.38966,-0.61375c-0.32322,-0.04831 -0.6385,-0.09995 -0.94444,-0.15478c-1.14036,-0.20435 -3.13933,-0.55439 -3.69448,-1.04304c-0.8257,-0.07602 -1.67783,-0.10161 -2.83878,0.05162c-1.28753,0.16993 -3.00301,0.39761 -4.24881,-0.03886c-0.18801,-0.06587 -0.26708,-0.22986 -0.27535,-0.38778c-0.82112,0.34689 -2.83603,0.75068 -3.1583,0.83607c-1.6286,0.25901 -5.88789,0.69679 -7.35231,0.25389c-0.84037,-0.25416 -1.04022,-1.2644 -1.56341,-1.64609c-0.24831,-0.18116 -0.83692,0.26186 -1.222,0.40595c-0.99951,0.37402 -2.47463,0.9239 -3.79841,1.08713c-2.47586,0.30529 -3.99237,-0.70819 -4.05428,-1.42071c0,0 0,-0.37302 1,-0.37302c1,0 1,0.37302 1,0.37302c-0.26894,1.81171 5.4312,-0.67476 6.38187,-0.79162c3.27423,-0.40251 2.64588,1.34008 3.64669,1.82908c0.38605,0.18862 1.1867,-0.17925 1.81126,-0.22442c1.31797,-0.09534 1.84515,0.06999 3.16976,-0.14339c0.94688,-0.25391 3.94215,-1.33324 5.20644,-1.20079c0.80811,0.08466 0.18222,0.65463 0.69325,0.90302c0.45869,0.22295 3.94057,-0.47945 4.1107,-0.49071c0.71276,-0.0472 1.38046,0.02613 2.05731,0.12986c0.04455,-0.01867 0.09141,-0.03746 0.14064,-0.05636c1.10401,-0.42396 2.79778,-0.02195 3.8935,0.38012c1.39406,-0.1557 3.03244,-0.68692 4.18798,-0.64234c0.5819,0.02245 1.39669,0.40947 1.85416,0.61841h0.84644v0c0.55228,0 1,0.16701 1,0.37302c0,0.14399 -0.21872,0.26893 -0.53898,0.3311l-1.73796,0.35362l-0.00002,-0.00001c-0.39964,0.1354 -0.80208,0.26966 -1.20805,0.40208c2.81592,0.11908 5.72916,-0.01531 7.65999,-0.38632c1.66213,-0.31001 3.16567,-0.62953 4.6717,-0.99926c-0.72245,-0.51985 -0.41497,-1.06963 1.84403,-1.1065c0.36138,-0.0059 0.25569,0.22888 0.38433,0.37525l0.71849,0.03829c0.49238,0.02325 0.87313,0.18007 0.87313,0.37005c0,0.11619 -0.14241,0.21998 -0.36568,0.28839l-0.19747,0.06138c0.05383,0.01578 0.10664,0.03013 0.15818,0.04263c1.51847,0.36831 3.59396,0.80114 5.53075,0.7699c0.60138,-0.0097 0.53044,-0.42239 1.00871,-0.55872c1.47082,-0.41926 3.93467,-0.04577 5.58907,-0.21653c1.49061,-0.15385 4.38625,-1.54923 5.74724,-1.4404c0.63396,0.05069 1.72402,0.70785 2.16381,0.95452c0.0099,0.00443 0.33614,0.12562 0.67593,0.27642c0.08985,-0.13919 0.25905,-0.26081 0.49706,-0.30839c2.44216,-0.4882 3.34398,1.12826 3.6621,1.59394l0.0303,0.27763c0,0 0,0.37302 -1,0.37302zM235.03705,181.90949c0.28656,0.20642 0.52358,0.44696 0.61913,0.66878c0.05703,0.00606 0.11426,0.012 0.17168,0.01782c0.53493,-0.40612 1.65953,-0.69606 2.82285,-0.79265l-0.13535,-0.09257l0.09386,-0.0191c-0.21199,-0.14022 -0.44054,-0.2622 -0.82528,-0.26266c-0.52557,-0.00063 -1.6706,0.27763 -2.74689,0.48037zM233.06452,182.12509c-0.08694,0.00111 -0.17221,0.00163 -0.25589,0.00163c0.11896,0.02712 0.24059,0.05341 0.36471,0.07888c-0.03489,-0.02936 -0.07102,-0.05634 -0.10883,-0.08051z" fill="#41e2ff" stroke="none" stroke-width="0.5"/><path d="M201.75007,176.99797c1,0 1,0.37302 1,0.37302l-0.0303,0.09539c0.03294,0.04943 0.25375,0.28447 0.45291,0.5287c0.22757,-0.18846 0.52475,-0.34652 0.54251,-0.3492c1.35794,-0.20467 2.87783,0.83861 3.50282,1.11837c0.36327,0.2028 0.52304,0.4478 0.83619,0.66191c0.06735,0.04605 -0.05544,-0.11495 0.02855,-0.15703c0.31419,-0.15739 0.71154,-0.29077 1.11591,-0.41629c0.55389,-0.17192 1.13195,-0.3352 1.75011,-0.47333c1.93732,-0.43287 2.03974,-0.40905 4.25973,-0.44867c0.83642,-0.01493 1.99122,0.28909 2.50939,0.04372c0.59175,-0.28022 1.08971,-0.68564 2.02637,-0.75755c2.01797,-0.15492 5.95649,0.40243 8.00656,1.00382c1.6443,-0.40864 3.2851,-0.76067 5.0965,-1.09852c2.98132,-0.54253 6.81996,-0.60146 10.25523,-0.31203c0.37578,-0.17027 0.75843,-0.33705 1.27392,-0.30669c0.69057,0.04067 1.09316,0.30592 1.38966,0.61376c0.32322,0.0483 0.6385,0.09995 0.94444,0.15477c1.14036,0.20435 3.13933,0.55439 3.69448,1.04304c0.8257,0.07602 1.67783,0.10161 2.83878,-0.05162c1.28753,-0.16994 3.00301,-0.39762 4.24881,0.03886c0.18801,0.06587 0.26708,0.22987 0.27535,0.38779c0.82112,-0.34689 2.83603,-0.75069 3.1583,-0.83606c1.6286,-0.25901 5.88789,-0.69679 7.35231,-0.25389c0.84037,0.25415 1.04022,1.26439 1.56341,1.64609c0.24831,0.18116 0.83692,-0.26185 1.222,-0.40596c0.99951,-0.37402 2.47463,-0.9239 3.79841,-1.08713c2.47586,-0.30528 3.99237,0.70819 4.05428,1.42071c0,0 0,0.37302 -1,0.37302c-1,0 -1,-0.37302 -1,-0.37302c0.26894,-1.81171 -5.4312,0.67476 -6.38187,0.79162c-3.27423,0.40251 -2.64588,-1.34009 -3.64669,-1.82908c-0.38605,-0.18863 -1.1867,0.17925 -1.81126,0.22442c-1.31797,0.09534 -1.84515,-0.06999 -3.16976,0.14339c-0.94688,0.25391 -3.94215,1.33324 -5.20644,1.20078c-0.80811,-0.08466 -0.18222,-0.65463 -0.69325,-0.90302c-0.45869,-0.22296 -3.94057,0.47945 -4.1107,0.49071c-0.71276,0.0472 -1.38046,-0.02614 -2.05731,-0.12986c-0.04455,0.01866 -0.09141,0.03746 -0.14064,0.05636c-1.10401,0.42397 -2.79778,0.02194 -3.8935,-0.38013c-1.39406,0.1557 -3.03244,0.68693 -4.18798,0.64234c-0.5819,-0.02245 -1.39669,-0.40946 -1.85416,-0.6184h-0.84644v0c-0.55228,0 -1,-0.16701 -1,-0.37303c0,-0.14399 0.21872,-0.26893 0.53898,-0.33111l1.73796,-0.35362l0.00002,0.00001c0.39964,-0.13539 0.80208,-0.26966 1.20805,-0.40207c-2.81592,-0.11908 -5.72916,0.0153 -7.65999,0.38631c-1.66213,0.31001 -3.16567,0.62954 -4.6717,0.99926c0.72245,0.51985 0.41497,1.06963 -1.84403,1.1065c-0.36138,0.0059 -0.25569,-0.22888 -0.38433,-0.37525l-0.71849,-0.03829c-0.49238,-0.02326 -0.87313,-0.18007 -0.87313,-0.37006c0,-0.1162 0.14241,-0.21997 0.36568,-0.28838l0.19747,-0.06139c-0.05383,-0.01578 -0.10664,-0.03013 -0.15818,-0.04263c-1.51847,-0.36831 -3.59396,-0.80115 -5.53075,-0.7699c-0.60138,0.0097 -0.53044,0.42239 -1.00871,0.55872c-1.47082,0.41926 -3.93467,0.04577 -5.58907,0.21653c-1.49061,0.15385 -4.38625,1.54923 -5.74724,1.4404c-0.63396,-0.05069 -1.72402,-0.70785 -2.16381,-0.95452c-0.0099,-0.00443 -0.33614,-0.12562 -0.67593,-0.27642c-0.08985,0.13918 -0.25905,0.26081 -0.49706,0.30839c-2.44216,0.4882 -3.34398,-1.12826 -3.6621,-1.59395l-0.0303,-0.27763c0,0 0,-0.37303 1,-0.37303zM244.62969,178.26168c-0.28656,-0.20641 -0.52358,-0.44696 -0.61913,-0.66878c-0.05703,-0.00606 -0.11426,-0.012 -0.17168,-0.01782c-0.53493,0.40612 -1.65953,0.69607 -2.82285,0.79265l0.13535,0.09257l-0.09386,0.01909c0.21199,0.14022 0.44054,0.2622 0.82528,0.26266c0.52557,0.00063 1.6706,-0.27764 2.74689,-0.48037zM246.60222,178.04608c0.08694,-0.00111 0.17221,-0.00163 0.25589,-0.00163c-0.11896,-0.02712 -0.24059,-0.05341 -0.36471,-0.07888c0.03489,0.02936 0.07102,0.05634 0.10883,0.08051z" data-paper-data="{&quot;index&quot;:null}" fill="#41e2ff" stroke="none" stroke-width="0.5"/><path d="M199.25,183.67117v-7.34234h40.75v7.34234z" data-paper-data="{&quot;index&quot;:null}" fill="url(#color-1)" stroke="#000000" stroke-width="0"/><path d="M239.75,183.84229v-7.34234h40.75v7.34234z" data-paper-data="{&quot;index&quot;:null}" fill="url(#color-2)" stroke="#000000" stroke-width="0"/></g></g></svg>