<svg version="1.1" xmlns="http://www.w3.org/2000/svg" xmlns:xlink="http://www.w3.org/1999/xlink" width="9.72748" height="9.49199" viewBox="0,0,9.72748,9.49199"><g transform="translate(-235.13626,-175.254)"><g data-paper-data="{&quot;isPaintingLayer&quot;:true}" fill-rule="nonzero" stroke-opacity="0.48235" stroke="#a2ccff" stroke-width="0" stroke-linecap="butt" stroke-linejoin="miter" stroke-miterlimit="10" stroke-dasharray="" stroke-dashoffset="0" style="mix-blend-mode: normal"><g fill="#ffffff"><path d="M235.13627,179.68538c0,-1.06272 0,-2.77437 0,-2.77437l1.51017,-1.657c0,0 4.02032,5.75033 0.2838,5.17138c-1.08999,-0.16889 -1.79398,-0.41587 -1.79398,-0.74z"/><path d="M243.35356,175.25402l1.51017,1.657c0,0 0,1.52288 0,2.51696c0,0.35545 -0.80808,0.65029 -2.06764,0.86855c-3.86085,0.66903 0.55746,-5.04251 0.55746,-5.04251z" data-paper-data="{&quot;index&quot;:null}"/><path d="M235.13627,180.31462c0,-0.31563 0.66753,-0.55811 1.70897,-0.72655c3.6944,-0.59753 -0.1988,5.15792 -0.1988,5.15792l-1.51017,-1.657c0,0 0,-1.71166 0,-2.77437z" data-paper-data="{&quot;index&quot;:null}"/><path d="M242.01239,179.58808c1.6707,0.22442 2.85135,0.56134 2.85135,0.98394c0,0.99408 0,2.51696 0,2.51696l-1.51017,1.657c0,0 -5.38302,-5.70083 -1.34118,-5.15791z" data-paper-data="{&quot;index&quot;:null}"/><path d="M236.65086,184.74599v-9.49199h6.70125v9.49199z"/><path d="M235.13627,182.01054v-4.02109h9.72747v4.02109z"/></g><g fill="#34202b"><path d="M235.81019,179.80632c0,-0.91546 0,-2.38995 0,-2.38995l1.30092,-1.4274c0,0 3.46327,4.95356 0.24448,4.45483c-0.93896,-0.14549 -1.5454,-0.35825 -1.5454,-0.63747z"/><path d="M242.88889,175.98896l1.30092,1.4274c0,0 0,1.31186 0,2.1682c0,0.3062 -0.6961,0.56018 -1.78114,0.7482c-3.32588,0.57633 0.48022,-4.34382 0.48022,-4.34382z" data-paper-data="{&quot;index&quot;:null}"/><path d="M235.81019,180.34837c0,-0.2719 0.57503,-0.48078 1.47218,-0.62588c3.1825,-0.51474 -0.17125,4.44323 -0.17125,4.44323l-1.30092,-1.4274c0,0 0,-1.47449 0,-2.38995z" data-paper-data="{&quot;index&quot;:null}"/><path d="M241.73356,179.7225c1.43921,0.19332 2.45627,0.48356 2.45627,0.84761c0,0.85634 0,2.1682 0,2.1682l-1.30092,1.4274c0,0 -4.63714,-4.91092 -1.15534,-4.44322z" data-paper-data="{&quot;index&quot;:null}"/><path d="M237.11493,184.16572v-8.17676h5.77272v8.17676z"/><path d="M235.81019,181.8093v-3.46392h8.37963v3.46392z"/></g><g fill="#ffffff"><path d="M236.12543,179.74937c0,-0.84659 0,-2.21014 0,-2.21014l1.20304,-1.32001c0,0 3.20269,4.58085 0.22608,4.11965c-0.86832,-0.13454 -1.42912,-0.33129 -1.42912,-0.58951z"/><path d="M242.67152,176.21924l1.20304,1.32001c0,0 0,1.21316 0,2.00507c0,0.28316 -0.64374,0.51804 -1.64714,0.69191c-3.07564,0.53296 0.44409,-4.01699 0.44409,-4.01699z" data-paper-data="{&quot;index&quot;:null}"/><path d="M236.12543,180.25064c0,-0.25144 0.53177,-0.4446 1.36141,-0.57879c2.94305,-0.47601 -0.15836,4.10893 -0.15836,4.10893l-1.20304,-1.32001c0,0 0,-1.36355 0,-2.21014z" data-paper-data="{&quot;index&quot;:null}"/><path d="M241.60312,179.67186c1.33092,0.17878 2.27145,0.44718 2.27145,0.78383c0,0.79191 0,2.00507 0,2.00507l-1.20304,1.32001c0,0 -4.28825,-4.54143 -1.06842,-4.10891z" data-paper-data="{&quot;index&quot;:null}"/><path d="M237.332,183.78077v-7.56154h5.33838v7.56154z"/><path d="M236.12543,181.60165v-3.2033h7.74914v3.2033z"/></g></g></g></svg>