<svg version="1.1" xmlns="http://www.w3.org/2000/svg" xmlns:xlink="http://www.w3.org/1999/xlink" width="1100.84835" height="1070.84835" viewBox="0,0,1100.84835,1070.84835"><defs><radialGradient cx="23.40953" cy="-27.24285" r="384.1798" gradientUnits="userSpaceOnUse" id="color-1"><stop offset="0" stop-color="#ff3d7b" stop-opacity="0.35686"/><stop offset="1" stop-color="#ff3d7b" stop-opacity="0"/></radialGradient><radialGradient cx="443.65541" cy="363.00302" r="296.42267" gradientUnits="userSpaceOnUse" id="color-2"><stop offset="0" stop-color="#ff6200" stop-opacity="0.16078"/><stop offset="1" stop-color="#ff6200" stop-opacity="0"/></radialGradient><linearGradient x1="238.4985" y1="223.36336" x2="238.4985" y2="499.63964" gradientUnits="userSpaceOnUse" id="color-3"><stop offset="0" stop-color="#000000" stop-opacity="0"/><stop offset="1" stop-color="#000000" stop-opacity="0.30588"/></linearGradient><radialGradient cx="288.15391" cy="136.50151" r="185.42267" gradientUnits="userSpaceOnUse" id="color-4"><stop offset="0" stop-color="#ffffff"/><stop offset="1" stop-color="#ffffff" stop-opacity="0"/></radialGradient><radialGradient cx="125.5" cy="193.71286" r="103.21134" gradientUnits="userSpaceOnUse" id="color-5"><stop offset="0" stop-color="#ffffff" stop-opacity="0.67843"/><stop offset="1" stop-color="#ffffff" stop-opacity="0"/></radialGradient></defs><g transform="translate(360.77027,411.42265)"><g data-paper-data="{&quot;isPaintingLayer&quot;:true}" fill-rule="nonzero" stroke-width="0" stroke-linecap="butt" stroke-linejoin="miter" stroke-miterlimit="10" stroke-dasharray="" stroke-dashoffset="0" style="mix-blend-mode: normal"><path d="M-95.5,421.50152v-480h673v480z" fill="#d5f2ff" stroke="#000000"/><path d="M-34.17342,389.46538l19.78766,-93.5047l118.49418,54.82001l108.16464,-56.2962l131.92568,57.49461l57.06327,-67.06691l163.46343,123.07582z" fill-opacity="0.20392" fill="#494949" stroke="none"/><path d="M-360.77027,-27.24285c0,-212.17665 172.00316,-384.1798 384.1798,-384.1798c212.17665,0 384.1798,172.00316 384.1798,384.1798c0,212.17665 -172.00316,384.17981 -384.1798,384.17981c-212.17665,0 -384.1798,-172.00316 -384.1798,-384.17981zM-127.11712,-108.7988c5.52285,0 10,-4.47715 10,-10c0,-5.52285 -4.47715,-10 -10,-10c-5.52285,0 -10,4.47715 -10,10c0,5.52285 4.47715,10 10,10z" fill="url(#color-1)" stroke="#000000"/><path d="M147.23273,363.00302c0,-163.70972 132.71295,-296.42268 296.42268,-296.42268c163.70973,0 296.42267,132.71295 296.42267,296.42268c0,163.70972 -132.71295,296.42268 -296.42267,296.42268c-163.70973,0 -296.42268,-132.71295 -296.42268,-296.42268z" fill="url(#color-2)" stroke="#000000"/><path d="M-90.33033,499.63964v-276.27628h657.65766v276.27628z" fill="url(#color-3)" stroke="#000000"/><path d="M102.73123,136.50151c0,-102.40611 83.01656,-185.42268 185.42268,-185.42268c102.40612,0 185.42267,83.01656 185.42267,185.42268c0,102.40611 -83.01656,185.42268 -185.42267,185.42268c-102.40612,0 -185.42268,-83.01656 -185.42268,-185.42268z" fill="url(#color-4)" stroke="#000000"/><path d="M22.28866,193.71286c0,-57.00205 46.20929,-103.21134 103.21134,-103.21134c57.00205,0 103.21134,46.20929 103.21134,103.21134c0,57.00205 -46.20929,103.21134 -103.21134,103.21134c-57.00205,0 -103.21134,-46.20929 -103.21134,-103.21134z" fill="url(#color-5)" stroke="#000000"/><path d="M46.5,116v-55h158v55z" fill-opacity="0.61569" fill="#fcfcfc" stroke="#000000"/><path d="M199.5,215.00001v-55h225v55z" fill-opacity="0.61569" fill="#fcfcfc" stroke="#000000"/><path d="M343.5,56v-48h160v48z" fill-opacity="0.61569" fill="#fcfcfc" stroke="#000000"/><path d="M-3.5,279v-55h127v55z" fill-opacity="0.61569" fill="#fcfcfc" stroke="none"/></g></g></svg>